<?xml version="1.0" encoding="UTF-8" standalone="no"?>
<svg
   xmlns:dc="http://purl.org/dc/elements/1.1/"
   xmlns:cc="http://creativecommons.org/ns#"
   xmlns:rdf="http://www.w3.org/1999/02/22-rdf-syntax-ns#"
   xmlns:svg="http://www.w3.org/2000/svg"
   xmlns="http://www.w3.org/2000/svg"
   viewBox="0 0 800 400"
   height="400"
   width="800"
   xml:space="preserve"
   id="svg2"
   version="1.1"><metadata
     id="metadata8"><rdf:RDF><cc:Work
         rdf:about=""><dc:format>image/svg+xml</dc:format><dc:type
           rdf:resource="http://purl.org/dc/dcmitype/StillImage" /></cc:Work></rdf:RDF></metadata><defs
     id="defs6"><clipPath
       id="clipPath18"
       clipPathUnits="userSpaceOnUse"><path
         id="path16"
         d="M 0,300 H 600 V 0 H 0 Z" /></clipPath></defs><g
     transform="matrix(1.3333333,0,0,-1.3333333,0,400)"
     id="g10"><g
       id="g12"><g
         clip-path="url(#clipPath18)"
         id="g14"><g
           transform="translate(349.1035,133.666)"
           id="g20"><path
             id="path22"
             style="fill:#656263;fill-opacity:1;fill-rule:nonzero;stroke:none"
             d="m 0,0 c -0.801,0 -1.426,0.623 -1.426,1.424 0,0.775 0.625,1.4 1.426,1.4 0.773,0 1.398,-0.625 1.398,-1.4 C 1.398,0.623 0.773,0 0,0" /></g><g
           transform="translate(361.6016,144.3379)"
           id="g24"><path
             id="path26"
             style="fill:#656263;fill-opacity:1;fill-rule:nonzero;stroke:none"
             d="m 0,0 h -2.049 v -4.049 c 0.299,-0.076 1.199,-0.25 2.299,-0.25 1.449,0 2.426,0.899 2.426,2.274 C 2.676,-0.6 1.9,0 0,0 m 0.451,-5.873 c -0.951,0 -2.076,0.125 -2.5,0.25 v -4.75 h -1.9 V 1.574 h 4.15 c 2.848,0 4.373,-1.275 4.373,-3.674 0,-2.224 -1.699,-3.773 -4.123,-3.773" /></g><g
           transform="translate(372.5273,133.9648)"
           id="g28"><path
             id="path30"
             style="fill:#656263;fill-opacity:1;fill-rule:nonzero;stroke:none"
             d="M 0,0 V 11.947 H 1.9 V 1.574 H 7.549 L 7.549,0 Z" /></g><g
           transform="translate(199.7954,193.1113)"
           id="g32"><path
             id="path34"
             style="fill:#f68712;fill-opacity:1;fill-rule:nonzero;stroke:none"
             d="m 0,0 v -28.27 l 24.362,-19.796 16.953,15.281 z" /></g><g
           transform="translate(207.3765,126.5723)"
           id="g36"><path
             id="path38"
             style="fill:#f68712;fill-opacity:1;fill-rule:nonzero;stroke:none"
             d="M 0,0 -7.581,-6.947 V -38.395 L 34.54,1.179 34.529,31.123 Z" /></g></g></g><text
       id="text42"
       style="font-variant:normal;font-weight:900;font-stretch:normal;font-size:28px;font-family:'Lato Black';-inkscape-font-specification:Lato-Black;writing-mode:lr-tb;fill:#ffffff;fill-opacity:1;fill-rule:nonzero;stroke:none"
       transform="matrix(1,0,0,-1,253.5957,133.1875)"><tspan
         id="tspan40"
         y="0"
         x="0 17.08 22.483999 34.523998 39.928001 55.748001 61.152">Z J E M</tspan></text>
<text
       id="text46"
       style="font-variant:normal;font-weight:normal;font-stretch:normal;font-size:28px;font-family:Lato;-inkscape-font-specification:Lato-Regular;writing-mode:lr-tb;fill:#ffffff;fill-opacity:1;fill-rule:nonzero;stroke:none"
       transform="matrix(1,0,0,-1,133.7837,133.5235)"><tspan
         id="tspan44"
         y="0"
         x="0 17.108 22.511999 44.855999 50.259998">P O E</tspan></text>
</g></svg>